<svg width="225" height="29" viewBox="0 0 225 29" fill="none" xmlns="http://www.w3.org/2000/svg">
<path d="M47.6261 15.7091H46.4728C45.6403 15.7091 44.9653 16.3683 44.9653 17.1814V27.5277C44.9653 28.3408 45.6403 29 46.4728 29H47.6261C48.4587 29 49.1336 28.3408 49.1336 27.5277V17.1814C49.1336 16.3683 48.4587 15.7091 47.6261 15.7091Z" fill="#282222"/>
<path d="M51.4725 15.1653C52.1171 14.2323 51.8651 12.9656 50.9098 12.3361C49.9544 11.7066 48.6574 11.9527 48.0128 12.8857L45.8432 16.0262C45.1986 16.9592 45.4506 18.2259 46.4059 18.8554C47.3613 19.4849 48.6583 19.2389 49.3029 18.3058L51.4725 15.1653Z" fill="#282222"/>
<path d="M42.5602 7.06327C41.9484 6.1111 40.662 5.82361 39.6871 6.42114C38.7121 7.01866 38.4177 8.27494 39.0296 9.2271L44.775 18.1685C45.3868 19.1206 46.6732 19.4081 47.6481 18.8106C48.6231 18.2131 48.9175 16.9568 48.3056 16.0046L42.5602 7.06327Z" fill="#282222"/>
<path d="M121.453 14.5754C120.302 14.5754 119.369 15.4867 119.369 16.6108C119.369 17.735 120.302 18.6462 121.453 18.6462H132.262C133.413 18.6462 134.346 17.735 134.346 16.6108C134.346 15.4867 133.413 14.5754 132.262 14.5754H121.453Z" fill="#282222"/>
<path d="M121.453 24.6421C120.302 24.6421 119.369 25.5534 119.369 26.6775C119.369 27.8016 120.302 28.7129 121.453 28.7129H133.769C134.92 28.7129 135.853 27.8016 135.853 26.6775C135.853 25.5534 134.92 24.6421 133.769 24.6421H121.453Z" fill="#282222"/>
<path d="M123.537 7.21046C123.537 6.08633 122.604 5.17505 121.453 5.17505C120.302 5.17505 119.369 6.08633 119.369 7.21046V26.6334C119.369 27.7575 120.302 28.6688 121.453 28.6688C122.604 28.6688 123.537 27.7575 123.537 26.6334V7.21046Z" fill="#282222"/>
<path d="M150.725 7.01905C150.725 5.89493 149.792 4.98364 148.641 4.98364C147.49 4.98364 146.557 5.89493 146.557 7.01905V26.4419C146.557 27.5661 147.49 28.4774 148.641 28.4774C149.792 28.4774 150.725 27.5661 150.725 26.4419V7.01905Z" fill="#282222"/>
<path d="M209.929 6.90858C209.929 5.78445 208.996 4.87317 207.845 4.87317C206.693 4.87317 205.76 5.78445 205.76 6.90858V26.3315C205.76 27.4556 206.693 28.3669 207.845 28.3669C208.996 28.3669 209.929 27.4556 209.929 26.3315V6.90858Z" fill="#282222"/>
<path d="M225 14.281C225 13.1569 224.067 12.2456 222.916 12.2456C221.765 12.2456 220.832 13.1569 220.832 14.281V26.7843C220.832 27.9084 221.765 28.8197 222.916 28.8197C224.067 28.8197 225 27.9084 225 26.7843V14.281Z" fill="#282222"/>
<path d="M208.979 14.9693C207.828 14.9693 206.895 15.8806 206.895 17.0048C206.895 18.1289 207.828 19.0402 208.979 19.0402H221.781C222.932 19.0402 223.866 18.1289 223.866 17.0048C223.866 15.8806 222.932 14.9693 221.781 14.9693H208.979Z" fill="#282222"/>
<path d="M126.194 9.24215C126.484 9.27181 126.778 9.24155 127.055 9.15333C127.333 9.06511 127.589 8.9209 127.806 8.73004C128.023 8.53918 128.196 8.30594 128.315 8.04542C128.433 7.78491 128.495 7.50294 128.495 7.21778C128.495 6.93263 128.433 6.65066 128.315 6.39014C128.196 6.12963 128.023 5.89638 127.806 5.70553C127.589 5.51467 127.333 5.37045 127.055 5.28223C126.778 5.19401 126.484 5.16375 126.194 5.19342H124.151V9.24215H126.194Z" fill="#282222"/>
<path d="M157.554 20.5197C157.812 20.9648 158.232 21.2987 158.731 21.455C159.229 21.6114 159.77 21.5786 160.245 21.3634C160.72 21.1481 161.094 20.7661 161.294 20.2933C161.494 19.8205 161.504 19.2916 161.323 18.8119L160.467 16.9973L156.698 18.7051L157.554 20.5197Z" fill="#282222"/>
<path d="M4.16827 7.46437C4.16827 6.34024 3.23517 5.42896 2.08414 5.42896C0.9331 5.42896 0 6.34024 0 7.46437V26.9646C0 28.0887 0.9331 29 2.08414 29C3.23517 29 4.16827 28.0887 4.16827 26.9646V7.46437Z" fill="#282222"/>
<path d="M3.97715 6.43385C3.40164 5.46033 2.127 5.12677 1.13017 5.68884C0.133344 6.2509 -0.208194 7.49574 0.367324 8.46926L11.555 27.3938C12.1305 28.3673 13.4051 28.7008 14.4019 28.1388C15.3988 27.5767 15.7403 26.3319 15.1648 25.3584L3.97715 6.43385Z" fill="#282222"/>
<path d="M26.3471 8.48526C26.9226 7.51174 26.5811 6.2669 25.5843 5.70484C24.5874 5.14278 23.3128 5.47633 22.7373 6.44985L11.5779 25.3265C11.0024 26.3001 11.3439 27.5449 12.3408 28.107C13.3376 28.669 14.6122 28.3355 15.1878 27.362L26.3471 8.48526Z" fill="#282222"/>
<path d="M26.845 7.46437C26.845 6.34024 25.9119 5.42896 24.7609 5.42896C23.6099 5.42896 22.6768 6.34024 22.6768 7.46437V21.127C22.6768 22.2511 23.6099 23.1624 24.7609 23.1624C25.9119 23.1624 26.845 22.2511 26.845 21.127V7.46437Z" fill="#282222"/>
<path d="M24.7609 28.9999C25.9057 28.9999 26.8337 28.0936 26.8337 26.9755C26.8337 25.8575 25.9057 24.9512 24.7609 24.9512C23.6161 24.9512 22.688 25.8575 22.688 26.9755C22.688 28.0936 23.6161 28.9999 24.7609 28.9999Z" fill="#7FE0F2"/>
<path d="M84.9559 7.16993C84.9559 6.04581 84.0228 5.13452 82.8717 5.13452C81.7207 5.13452 80.7876 6.04581 80.7876 7.16993V26.6701C80.7876 27.7942 81.7207 28.7055 82.8717 28.7055C84.0228 28.7055 84.9559 27.7942 84.9559 26.6701V7.16993Z" fill="#282222"/>
<path d="M84.7652 6.13844C84.1897 5.16492 82.915 4.83136 81.9182 5.39343C80.9214 5.95549 80.5798 7.20033 81.1554 8.17385L92.343 27.0984C92.9185 28.0719 94.1932 28.4054 95.19 27.8434C96.1868 27.2813 96.5283 26.0365 95.9528 25.0629L84.7652 6.13844Z" fill="#282222"/>
<path d="M107.135 8.19168C107.71 7.21816 107.369 5.97332 106.372 5.41126C105.375 4.8492 104.1 5.18275 103.525 6.15627L92.3655 25.033C91.79 26.0065 92.1315 27.2513 93.1283 27.8134C94.1251 28.3754 95.3998 28.0419 95.9753 27.0684L107.135 8.19168Z" fill="#282222"/>
<path d="M107.636 7.16993C107.636 6.04581 106.703 5.13452 105.552 5.13452C104.401 5.13452 103.468 6.04581 103.468 7.16993V20.8326C103.468 21.9567 104.401 22.868 105.552 22.868C106.703 22.868 107.636 21.9567 107.636 20.8326V7.16993Z" fill="#282222"/>
<path d="M105.548 28.7056C106.693 28.7056 107.621 27.7993 107.621 26.6812C107.621 25.5632 106.693 24.6569 105.548 24.6569C104.404 24.6569 103.476 25.5632 103.476 26.6812C103.476 27.7993 104.404 28.7056 105.548 28.7056Z" fill="#7FE0F2"/>
<path d="M53.4564 10.5746C54.6012 10.5746 55.5292 9.66828 55.5292 8.55025C55.5292 7.43222 54.6012 6.52588 53.4564 6.52588C52.3116 6.52588 51.3835 7.43222 51.3835 8.55025C51.3835 9.66828 52.3116 10.5746 53.4564 10.5746Z" fill="#7FE0F2"/>
<path d="M133.351 9.02505C134.496 9.02505 135.424 8.11871 135.424 7.00069C135.424 5.88266 134.496 4.97632 133.351 4.97632C132.206 4.97632 131.278 5.88266 131.278 7.00069C131.278 8.11871 132.206 9.02505 133.351 9.02505Z" fill="#7FE0F2"/>
<path d="M162.551 27.1228C163.696 27.1228 164.624 26.2165 164.624 25.0985C164.624 23.9804 163.696 23.0741 162.551 23.0741C161.407 23.0741 160.479 23.9804 160.479 25.0985C160.479 26.2165 161.407 27.1228 162.551 27.1228Z" fill="#7FE0F2"/>
<path d="M222.916 9.15384C224.061 9.15384 224.989 8.2475 224.989 7.12947C224.989 6.01144 224.061 5.1051 222.916 5.1051C221.771 5.1051 220.843 6.01144 220.843 7.12947C220.843 8.2475 221.771 9.15384 222.916 9.15384Z" fill="#7FE0F2"/>
<path d="M184.282 18.7567C185.427 18.7567 186.355 17.8504 186.355 16.7324C186.355 15.6143 185.427 14.708 184.282 14.708C183.137 14.708 182.209 15.6143 182.209 16.7324C182.209 17.8504 183.137 18.7567 184.282 18.7567Z" fill="#7FE0F2"/>
<path d="M124.151 9.24222H120.718C120.573 9.2429 120.43 9.20779 120.302 9.14015C120.174 9.07251 120.066 8.97452 119.988 8.85525C119.909 8.73599 119.863 8.5993 119.853 8.45785C119.843 8.31639 119.869 8.17474 119.93 8.046L120.861 5.46953C121 5.1714 121.238 5.19716 121.554 5.19348H124.151" fill="#282222"/>
<path d="M148.656 6.48901H155.982C157.502 6.48901 158.959 7.07845 160.033 8.12764C161.107 9.17683 161.711 10.5998 161.711 12.0836C161.708 13.5655 161.103 14.9857 160.029 16.0325C158.955 17.0793 157.5 17.6672 155.982 17.6672H149.055C148.818 17.6672 148.591 17.5753 148.424 17.4117C148.256 17.2481 148.162 17.0262 148.162 16.7949V6.97118C148.162 6.8433 148.214 6.72066 148.307 6.63024C148.399 6.53981 148.525 6.48901 148.656 6.48901V6.48901Z" stroke="#282222" stroke-width="3.2" stroke-miterlimit="10"/>
<path d="M194.774 11.2813C194.825 11.4511 194.852 11.627 194.854 11.8039C194.855 12.0729 194.802 12.3395 194.696 12.5879C194.591 12.8363 194.435 13.0616 194.239 13.2504C194.047 13.4528 193.814 13.6134 193.554 13.7218C193.294 13.8303 193.014 13.8841 192.732 13.8798C192.368 13.8778 192.011 13.788 191.692 13.6185C191.361 13.4455 191.087 13.1837 190.904 12.864C190.245 11.771 189.309 10.8621 188.187 10.2249C187.195 9.65526 186.08 9.32203 184.932 9.25232C183.784 9.18261 182.636 9.37838 181.58 9.82373C180.692 10.1977 179.886 10.735 179.206 11.4064C178.525 12.0845 177.981 12.881 177.6 13.7547C177.206 14.6635 177.002 15.6404 177.002 16.6274C177.002 17.6145 177.206 18.5914 177.6 19.5002C177.98 20.3755 178.524 21.1733 179.206 21.8522C179.886 22.5236 180.692 23.0609 181.58 23.4348C182.498 23.8233 183.489 24.0213 184.489 24.0164C185.799 24.0242 187.085 23.6735 188.202 23.0042C189.295 22.3624 190.221 21.4802 190.904 20.4277C191.121 20.1226 191.407 19.8706 191.741 19.6916C192.048 19.5073 192.401 19.4069 192.762 19.4008C193.053 19.3885 193.344 19.4414 193.611 19.5556C193.878 19.6698 194.115 19.8423 194.303 20.0597C194.662 20.4536 194.863 20.9608 194.869 21.4878C194.864 21.6608 194.832 21.8321 194.774 21.9957C194.71 22.1908 194.65 22.3638 194.586 22.5331C194.028 23.3376 193.38 24.0784 192.653 24.7415C191.91 25.4157 191.092 26.0059 190.214 26.5008C189.343 27.004 188.414 27.4066 187.448 27.7007C186.486 27.9962 185.483 28.1464 184.474 28.1461C182.89 28.1586 181.32 27.849 179.865 27.237C178.467 26.6479 177.2 25.7962 176.138 24.7304C175.083 23.6651 174.24 22.4169 173.654 21.0498C173.041 19.6419 172.729 18.1262 172.738 16.5962C172.725 15.0425 173.047 13.5036 173.684 12.08C174.9 9.34128 177.146 7.16325 179.959 5.99583C181.388 5.39962 182.928 5.09644 184.482 5.10511C185.51 5.09848 186.535 5.2222 187.531 5.47318C188.51 5.73365 189.449 6.12111 190.323 6.62523C192.08 7.62024 193.547 9.03661 194.586 10.7402C194.661 10.9162 194.724 11.0969 194.774 11.2813Z" fill="#282222"/>
</svg>
